<?xml version="1.0" encoding="UTF-8"?>
<svg version="1.1" xmlns="http://www.w3.org/2000/svg" width="512" height="512">
<path d="M0 0 C17.55418956 14.40149747 28.97635763 32.50525084 33 55 C33.42801951 59.38548336 33.52570535 63.72038755 33.5 68.125 C33.49033203 69.88215332 33.49033203 69.88215332 33.48046875 71.67480469 C33.04882865 92.42192708 25.98918247 110.5600875 12 126 C11.26265625 126.83015625 10.5253125 127.6603125 9.765625 128.515625 C-4.45966323 143.67067063 -24.78220454 153.6033111 -45.6484375 154.43359375 C-47.89050585 154.4567451 -50.13290282 154.4576671 -52.375 154.4375 C-54.14435913 154.42722778 -54.14435913 154.42722778 -55.94946289 154.41674805 C-64.89527913 154.2523278 -72.58705882 153.19796273 -81 150 C-82.04800781 149.62617188 -83.09601563 149.25234375 -84.17578125 148.8671875 C-104.94981899 140.89544748 -122.18276589 124.21123988 -131.375 103.97265625 C-140.04359795 82.68815235 -141.37641723 58.34886421 -132.6418457 36.82861328 C-123.16908001 14.75056042 -107.22073788 -2.18379396 -84.9609375 -11.52734375 C-56.75960002 -22.45694756 -24.04310525 -18.47131822 0 0 Z " fill="#000000" transform="translate(287,102)"/>
<path d="M0 0 C-1.49498539 3.53500714 -3.51330593 5.68403786 -6.2890625 8.30859375 C-7.145 9.13174072 -8.0009375 9.9548877 -8.8828125 10.80297852 C-9.78773438 11.67237061 -10.69265625 12.5417627 -11.625 13.4375 C-26.34583569 27.88673836 -35.81847687 43.21073326 -36.03515625 64.4453125 C-35.02189115 86.53943452 -25.31439708 100.79068301 -10.17578125 115.80078125 C-9.53447266 116.43717529 -8.89316406 117.07356934 -8.23242188 117.72924805 C-6.96781451 118.97793525 -5.69710098 120.22047317 -4.41992188 121.45629883 C-2.91018115 122.9345514 -1.45005349 124.46315498 0 126 C0 126.66 0 127.32 0 128 C-63.36 128 -126.72 128 -192 128 C-192 65.2921798 -192 65.2921798 -176.4375 48.9375 C-134.52338083 9.10020655 -56.17348837 -7.36701487 0 0 Z " fill="#000000" transform="translate(256,299)"/>
<path d="M0 0 C5.22220635 3.01322379 9.4641298 7.81843713 11.6875 13.4375 C12.0234375 16.390625 12.0234375 16.390625 12.0625 19.6875 C12.09085938 20.76515625 12.11921875 21.8428125 12.1484375 22.953125 C10.90060847 32.38586649 4.65624207 38.02082244 -1.83520508 44.3984375 C-2.81051455 45.37097688 -3.78493208 46.34441142 -4.75852966 47.31866455 C-7.39039472 49.94742147 -10.03429857 52.56375788 -12.68046403 55.17810822 C-15.45803462 57.92679353 -18.22374495 60.6873598 -20.99064636 63.44677734 C-26.23366949 68.67223825 -31.48637318 73.88784763 -36.74304265 79.09957695 C-44.44168953 86.73308536 -52.12782979 94.37917049 -59.81138897 102.02786255 C-60.37720757 102.59111174 -60.94302617 103.15436092 -61.52599078 103.73467827 C-62.6551166 104.85870448 -63.78420876 105.98276448 -64.91326636 107.10685921 C-68.20122205 110.3796474 -71.49270202 113.64883697 -74.78735125 116.91488647 C-76.84431279 118.95470985 -78.89923519 120.99657941 -80.95377541 123.03884125 C-82.34733749 124.42266782 -83.74354711 125.80382668 -85.13986206 127.18487549 C-89.57415809 131.59605738 -93.85928085 136.06579725 -97.92292309 140.82215881 C-103.01477079 146.74127797 -108.43453715 151.21348594 -116.3125 152.4375 C-124.77433584 152.61672194 -131.01778476 150.11809668 -137.3125 144.4375 C-138.3647691 143.24490373 -139.4035221 142.04032338 -140.43286133 140.82788086 C-144.38638195 136.27652049 -148.62967048 132.08007235 -152.94921875 127.87890625 C-154.59499668 126.26037106 -156.24016076 124.6412115 -157.88476562 123.02148438 C-160.44633818 120.50317415 -163.01140317 117.98891535 -165.5871582 115.48510742 C-168.09451311 113.04462168 -170.5854128 110.58828727 -173.07421875 108.12890625 C-173.84094406 107.39112442 -174.60766937 106.65334259 -175.39762878 105.89320374 C-181.1983478 100.1216175 -185.23245826 94.28507808 -185.8125 85.9375 C-185.44583737 79.16015531 -182.92722347 73.54479491 -177.875 69 C-173.45020355 65.39651148 -169.17390531 64.13686311 -163.5 64.0625 C-162.52417969 64.03414063 -161.54835938 64.00578125 -160.54296875 63.9765625 C-152.75273937 65.08810672 -147.49551292 69.67908035 -142.1875 75.171875 C-141.55513428 75.80990051 -140.92276855 76.44792603 -140.27124023 77.10528564 C-138.27531129 79.12340944 -136.29383273 81.15505477 -134.3125 83.1875 C-132.95275819 84.56732854 -131.59208942 85.94624425 -130.23046875 87.32421875 C-126.91367259 90.68485785 -123.60975296 94.05768871 -120.3125 97.4375 C-117.00448846 95.99471397 -114.84140111 94.20618126 -112.3099823 91.64857483 C-111.52366928 90.8592305 -110.73735626 90.06988617 -109.92721558 89.25662231 C-109.07362457 88.38955658 -108.22003357 87.52249084 -107.34057617 86.62915039 C-105.94956521 85.22872488 -104.55855204 83.82830155 -103.16745627 82.42796028 C-101.67482741 80.92356613 -100.18466976 79.41676137 -98.69511986 77.90931892 C-95.58657425 74.76413864 -92.46930356 71.62770534 -89.35041809 68.49278259 C-80.48347913 59.57757993 -71.62832499 50.65072659 -62.78198242 41.71508789 C-57.89457861 36.77850524 -52.99994906 31.8492011 -48.09753591 26.9275226 C-44.99853927 23.81547438 -41.90875774 20.69464705 -38.82557905 17.56693089 C-36.44934345 15.16162574 -34.05997636 12.76949801 -31.67260742 10.37524414 C-30.82508911 9.51020264 -29.9775708 8.64516113 -29.10437012 7.75390625 C-20.93417108 -0.38947928 -11.46447959 -5.09532426 0 0 Z " fill="#000000" transform="translate(449.3125,276.5625)"/>
</svg>
