<?xml version="1.0" encoding="UTF-8"?>
<svg version="1.1" xmlns="http://www.w3.org/2000/svg" width="512" height="258">
<path d="M0 0 C4.12779201 4.15966686 6.9897889 8.93712276 9.875 14 C18.27461407 28.20458296 33.6001005 36.67538926 49.234375 40.8671875 C71.93137763 46.16315478 95.02278609 44.58121163 115.44921875 32.71875 C123.06891927 27.58449544 129.16895107 20.93197769 135.08984375 13.96875 C137.78487535 11.19104872 139.87627251 11.01677661 143.6875 10.5 C148.39422711 10.5860462 150.72834636 12.62569964 154 15.83984375 C154.66 16.55269531 155.32 17.26554687 156 18 C156.66 18.70253906 157.32 19.40507813 158 20.12890625 C176.67640168 41.68701834 182.98674589 74.80626112 183.23828125 102.5703125 C183.24802979 103.47282242 183.25777832 104.37533234 183.26782227 105.30519104 C183.554734 138.93393555 181.4506657 172.11350953 174 205 C173.68119873 206.48209961 173.68119873 206.48209961 173.35595703 207.99414062 C173.01153564 209.44336914 173.01153564 209.44336914 172.66015625 210.921875 C172.36250366 212.20723145 172.36250366 212.20723145 172.05883789 213.51855469 C170.6167902 216.89807341 169.19965155 219.18262637 166 221 C161.62369646 221.76995528 157.27744333 221.6824583 152.84375 221.64697266 C151.49152449 221.65375172 150.13930822 221.66265649 148.78710938 221.67352295 C145.12166649 221.69628944 141.45692837 221.6874916 137.79147339 221.67162752 C133.95276004 221.65895447 130.11410639 221.67071252 126.27539062 221.67855835 C119.82931705 221.68765088 113.38353005 221.67567764 106.9375 221.65185547 C99.48858932 221.62464464 92.04036292 221.63345911 84.59146881 221.6609875 C78.19213256 221.68368909 71.79300212 221.68687361 65.39363861 221.67379415 C61.57326544 221.66600529 57.75321375 221.66494212 53.93286133 221.68147659 C50.34073919 221.69593777 46.74949784 221.68587134 43.1574707 221.65700531 C41.21306565 221.64725749 39.26858596 221.66208082 37.32421875 221.67764282 C27.82028347 221.56220774 27.82028347 221.56220774 24.72192383 218.61312866 C22.94190715 215.91184041 22.3307877 214.38759195 22.1875 211.1875 C22.13980469 210.39730469 22.09210938 209.60710937 22.04296875 208.79296875 C22.02878906 208.20128906 22.01460938 207.60960937 22 207 C21.06377808 207.33040283 21.06377808 207.33040283 20.10864258 207.66748047 C-22.67889458 222.63946208 -67.04392286 233.13270152 -112 239 C-112.69068573 239.0921579 -113.38137146 239.1843158 -114.09298706 239.27926636 C-127.95795351 241.08649475 -141.71799955 241.35982831 -155.6875 241.3125 C-156.80695007 241.31067719 -157.92640015 241.30885437 -159.07977295 241.30697632 C-177.57441562 241.2564517 -195.65586327 240.44684822 -214 238 C-215.29824707 237.83371094 -216.59649414 237.66742188 -217.93408203 237.49609375 C-314.69168816 224.97178122 -314.69168816 224.97178122 -329 208 C-329.50793457 205.55641174 -329.50793457 205.55641174 -329.51757812 202.79516602 C-329.53018677 201.75630753 -329.54279541 200.71744904 -329.55578613 199.64710999 C-329.54768921 198.52735275 -329.53959229 197.40759552 -329.53125 196.25390625 C-329.5350769 195.09181137 -329.53890381 193.92971649 -329.54284668 192.73240662 C-329.54556993 190.26861711 -329.53818004 187.8047989 -329.52148438 185.34106445 C-329.50025621 181.60756019 -329.52118335 177.87601896 -329.546875 174.14257812 C-329.5442284 171.74218331 -329.53909658 169.3417897 -329.53125 166.94140625 C-329.54339539 165.28909752 -329.54339539 165.28909752 -329.55578613 163.60340881 C-329.35496714 146.60557269 -322.68315339 133.88704786 -311 122 C-310.45730469 121.44441406 -309.91460937 120.88882813 -309.35546875 120.31640625 C-292.02197624 104.12385249 -264.86858109 98.57535822 -242.1875 95.51171875 C-241.2586348 95.38587402 -240.32976959 95.2600293 -239.37275696 95.13037109 C-225.06578954 93.27564923 -210.66082987 92.31042455 -196.28149414 91.19775391 C-155.23244689 87.9971188 -129.28320935 77.71608212 -101.55322266 46.36425781 C-99.71064907 44.17615563 -97.94041631 41.93478839 -96.17578125 39.68359375 C-93.05387434 35.83305506 -89.67627162 32.23997182 -86.29296875 28.61962891 C-83.69308336 25.83652455 -81.144334 23.03656934 -78.6875 20.125 C-58.82216716 -2.6059921 -29.00890868 -21.63856706 0 0 Z " fill="#050505" transform="translate(329,17)"/>
<path d="M0 0 C4.32085471 3.42489153 6.57689233 8.32349864 9.19921875 13.08984375 C18.57689174 30.04033477 38.26319466 40.61742747 56.32421875 46.04296875 C57.31808594 46.30980469 58.31195313 46.57664063 59.3359375 46.8515625 C60.40199219 47.14933594 61.46804688 47.44710937 62.56640625 47.75390625 C89.68853232 54.28609422 119.77252087 49.23748273 143.58886719 34.97363281 C151.58562169 29.96371965 151.58562169 29.96371965 157.3359375 22.8515625 C158.3259375 22.8515625 159.3159375 22.8515625 160.3359375 22.8515625 C168.69037038 32.58669997 172.97580322 48.5030028 175.3359375 60.8515625 C175.47128906 61.54233887 175.60664063 62.23311523 175.74609375 62.94482422 C178.13541186 75.66901943 178.60825101 88.25762717 178.5859375 101.1640625 C178.58477432 102.30526047 178.58477432 102.30526047 178.58358765 103.46951294 C178.54554416 116.34089132 178.54554416 116.34089132 177.8258667 122.59440613 C177.73450817 123.39465808 177.64314964 124.19491003 177.54902267 125.01941204 C177.47870457 125.62402169 177.40838646 126.22863134 177.3359375 126.8515625 C176.67739084 126.85395085 176.01884418 126.85633921 175.34034157 126.85879993 C159.2360232 126.91821584 143.13187349 126.99393261 127.0277195 127.08727741 C119.23952218 127.13203665 111.45136856 127.17149569 103.66308594 127.19799805 C96.8662556 127.22114061 90.06956593 127.25471585 83.27284753 127.30026406 C79.68179277 127.32397988 76.0908754 127.34284891 72.49974442 127.34917641 C57.52847905 127.37903588 42.99915411 127.58758738 28.3359375 130.8515625 C27.61386486 131.0102116 26.89179222 131.1688607 26.14783859 131.33231735 C21.33771765 132.39291647 16.55334937 133.53773896 11.7734375 134.7265625 C10.3172416 135.08390943 8.8610239 135.44116753 7.40478516 135.79833984 C-0.98359062 137.86858872 -9.30017893 140.09500973 -17.55859375 142.63671875 C-22.81860889 144.23320047 -28.15198176 145.55266882 -33.4765625 146.9140625 C-40.19480784 148.63660633 -46.77166745 150.4814853 -53.31640625 152.78515625 C-61.05051423 155.24888026 -68.97294539 157.11161728 -76.83666992 159.11401367 C-79.63116164 159.84298004 -82.40822613 160.62151675 -85.1875 161.40625 C-90.65349151 162.90405532 -96.14170323 163.96701379 -101.7265625 164.9140625 C-103.07137695 165.15479492 -103.07137695 165.15479492 -104.44335938 165.40039062 C-121.84320396 168.40285861 -138.96528671 169.29547592 -156.6015625 169.2890625 C-157.74202026 169.28946533 -158.88247803 169.28986816 -160.05749512 169.2902832 C-179.97807973 169.24994265 -199.15964176 167.92124919 -218.6640625 163.8515625 C-219.34047791 163.71107483 -220.01689331 163.57058716 -220.71380615 163.42584229 C-245.26008896 158.26342525 -268.9968975 150.65910399 -291.6640625 139.8515625 C-289.93344294 130.37328804 -283.38715953 123.30505859 -275.6640625 117.8515625 C-258.14331377 107.30315831 -238.48615851 103.36615229 -218.4140625 100.7890625 C-217.76153503 100.70407501 -217.10900757 100.61908752 -216.43670654 100.53152466 C-205.02167821 99.06176308 -193.62261811 98.26801797 -182.13265991 97.67840576 C-172.62994705 97.18840924 -163.18074705 96.53059091 -153.7265625 95.4140625 C-152.75734863 95.30376709 -151.78813477 95.19347168 -150.78955078 95.07983398 C-146.00339095 94.47788332 -141.48725325 93.58520089 -136.84765625 92.25390625 C-128.97941926 90.08184331 -128.97941926 90.08184331 -125.6640625 90.8515625 C-122.80493846 93.04044678 -120.4135529 95.58468171 -117.9765625 98.2265625 C-116.66213003 99.61125132 -115.34579876 100.99414077 -114.02734375 102.375 C-113.45282471 102.99294434 -112.87830566 103.61088867 -112.28637695 104.24755859 C-109.63552978 106.8684865 -108.03312223 107.8173903 -104.2890625 108.1640625 C-100.46469195 107.83437538 -98.64501247 107.21878748 -95.6640625 104.8515625 C-94.36437426 100.95249779 -94.00890644 98.97904566 -94.6640625 94.8515625 C-96.70258276 92.1178983 -98.92177069 89.71867798 -101.3046875 87.28125 C-103.60166677 84.9158177 -105.64431269 82.45500148 -107.6640625 79.8515625 C-106.73464844 79.13871094 -105.80523437 78.42585938 -104.84765625 77.69140625 C-98.4126223 72.71872203 -92.22848991 67.81344901 -86.6640625 61.8515625 C-82.39230542 63.49850499 -79.70536233 66.62208734 -76.6015625 69.8515625 C-71.40123531 75.69951631 -71.40123531 75.69951631 -64.2890625 78.1640625 C-60.46469195 77.83437538 -58.64501247 77.21878748 -55.6640625 74.8515625 C-54.36437426 70.95249779 -54.00890644 68.97904566 -54.6640625 64.8515625 C-57.323698 61.17760924 -60.44681017 58.03827129 -63.6640625 54.8515625 C-64.375625 54.12710938 -65.0871875 53.40265625 -65.8203125 52.65625 C-67.41931075 51.03759194 -69.03181851 49.43657113 -70.6640625 47.8515625 C-69.2272727 43.27232014 -66.61819002 40.30215825 -63.3515625 36.9140625 C-62.39576351 35.90624724 -61.44133112 34.89713414 -60.48828125 33.88671875 C-60.02212402 33.39316895 -59.5559668 32.89961914 -59.07568359 32.39111328 C-56.84209971 29.95510845 -54.7566595 27.40918105 -52.6640625 24.8515625 C-47.4634909 29.18986316 -42.65333333 33.7673163 -37.9140625 38.6015625 C-36.60914315 39.93201844 -35.30194279 41.26024198 -33.9921875 42.5859375 C-33.4240332 43.16569336 -32.85587891 43.74544922 -32.27050781 44.34277344 C-29.58382809 46.86612916 -27.99704337 47.82073094 -24.2890625 48.1640625 C-20.46469195 47.83437538 -18.64501247 47.21878748 -15.6640625 44.8515625 C-14.36437426 40.95249779 -14.00890644 38.97904566 -14.6640625 34.8515625 C-17.24302227 31.12935252 -20.4573368 28.02791189 -23.6640625 24.8515625 C-24.90314493 23.60105376 -26.14137788 22.34970293 -27.37890625 21.09765625 C-30.7869964 17.66147507 -34.21993225 14.25160005 -37.6640625 10.8515625 C-34.8200511 4.60796539 -29.48424882 1.14050719 -23.28125 -1.41796875 C-15.85491712 -3.49069151 -7.07229492 -3.18138833 0 0 Z " fill="#B75F47" transform="translate(313.6640625,31.1484375)"/>
<path d="M0 0 C1.25967087 -0.00029205 2.51934174 -0.00058411 3.81718445 -0.00088501 C7.24009537 -0.00145422 10.66286351 0.01022936 14.08574152 0.02426291 C17.67449356 0.03684298 21.26324958 0.03794646 24.85202026 0.04031372 C31.63387623 0.04650725 38.41566701 0.06288899 45.19749439 0.0830127 C52.92429317 0.10543827 60.65109521 0.1163818 68.37791848 0.12640357 C84.25963302 0.14725733 100.14128268 0.18239152 116.02294922 0.22705078 C115.49429705 4.31698712 114.96105224 8.40629775 114.42382812 12.49511719 C114.2422739 13.8816773 114.06190313 15.26839297 113.8828125 16.65527344 C113.62286291 18.66661525 113.35843934 20.67732982 113.09326172 22.68798828 C112.93615723 23.89245605 112.77905273 25.09692383 112.6171875 26.33789062 C111.90581864 30.9936449 110.94661444 35.60872466 110.02294922 40.22705078 C73.39294922 40.22705078 36.76294922 40.22705078 -0.97705078 40.22705078 C-1.30705078 35.93705078 -1.63705078 31.64705078 -1.97705078 27.22705078 C-4.50270913 23.0689369 -4.50270913 23.0689369 -7.97705078 22.22705078 C-13.27802974 21.87951805 -17.51496423 22.78632656 -22.43798828 24.60595703 C-23.13686157 24.85339661 -23.83573486 25.10083618 -24.55578613 25.35577393 C-26.04941985 25.88477092 -27.54151721 26.41812293 -29.03216553 26.95547485 C-32.97234867 28.37210178 -36.92731484 29.74591009 -40.88330078 31.11767578 C-41.6694577 31.39049881 -42.45561462 31.66332184 -43.26559448 31.94441223 C-53.70117113 35.54197123 -64.28530591 38.49568061 -74.97705078 41.22705078 C-76.09144531 41.51386719 -77.20583984 41.80068359 -78.35400391 42.09619141 C-131.42032718 55.63562575 -184.41958498 63.87502255 -239.16357422 58.50048828 C-241.83177653 58.24116976 -244.50078003 58.01090175 -247.17236328 57.78955078 C-260.22938937 56.66206742 -273.08489536 54.55053779 -285.97705078 52.22705078 C-286.91291016 52.05915039 -287.84876953 51.89125 -288.81298828 51.71826172 C-310.40935909 47.81041983 -332.54429004 43.40015508 -352.97705078 35.22705078 C-352.97705078 28.29705078 -352.97705078 21.36705078 -352.97705078 14.22705078 C-342.92028951 17.57930454 -342.92028951 17.57930454 -338.22705078 19.31298828 C-320.77465734 25.71623428 -303.65876161 31.00255647 -285.47705078 34.85205078 C-284.79845001 34.99862122 -284.11984924 35.14519165 -283.42068481 35.29620361 C-261.86712472 39.91596247 -240.40083603 41.73552935 -218.3737793 41.61816406 C-214.78086696 41.60201174 -211.18907118 41.61816479 -207.59619141 41.63720703 C-193.14576872 41.65049401 -179.22025634 40.66028218 -164.97705078 38.22705078 C-163.79989502 38.03369141 -162.62273926 37.84033203 -161.40991211 37.64111328 C-158.58770502 37.15161481 -155.78310177 36.61394207 -152.97705078 36.03955078 C-151.96271973 35.83378418 -150.94838867 35.62801758 -149.90332031 35.41601562 C-131.62446279 31.58455494 -113.64143436 26.44511654 -95.82397461 20.87866211 C-82.68260953 16.8262131 -69.30955174 13.58200554 -55.97705078 10.22705078 C-54.332417 9.80948565 -52.68786787 9.39158678 -51.04345703 8.97314453 C-44.41025848 7.29181022 -37.75999083 5.68219799 -31.10205078 4.10205078 C-30.4357666 3.94317383 -29.76948242 3.78429687 -29.08300781 3.62060547 C-27.78956592 3.31652979 -26.49461014 3.01880796 -25.19808769 2.72814751 C-23.74330093 2.39992744 -22.29112106 2.05987699 -20.84218025 1.70674324 C-13.85418704 0.1243959 -7.1441753 -0.04389549 0 0 Z " fill="#3E465B" transform="translate(372.97705078125,177.77294921875)"/>
<path d="M0 0 C3.95403662 0.26360244 5.65370756 0.86143155 8.75 3.25 C11.23386059 6.97579089 11.1304212 8.83711402 10.75 13.25 C9.39753111 16.45321578 8.46441282 17.84452246 5.4375 19.5625 C2.26245307 20.37472131 0.01194647 20.72570053 -3.25 20.25 C-7.09128305 17.00624987 -9.05779972 14.94776915 -9.625 9.9375 C-9.15786625 5.34401813 -7.72959782 4.13552015 -4.25 1.25 C-3.25 0.25 -3.25 0.25 0 0 Z " fill="#060302" transform="translate(271.25,111.75)"/>
<path d="M0 0 C3.95403662 0.26360244 5.65370756 0.86143155 8.75 3.25 C11.23386059 6.97579089 11.1304212 8.83711402 10.75 13.25 C9.39753111 16.45321578 8.46441282 17.84452246 5.4375 19.5625 C2.26245307 20.37472131 0.01194647 20.72570053 -3.25 20.25 C-7.09128305 17.00624987 -9.05779972 14.94776915 -9.625 9.9375 C-9.15786625 5.34401813 -7.72959782 4.13552015 -4.25 1.25 C-3.25 0.25 -3.25 0.25 0 0 Z " fill="#060302" transform="translate(311.25,81.75)"/>
<path d="M0 0 C4.21991975 0.32138462 6.62477605 0.71843517 10.171875 3.1796875 C12.62942904 6.82638059 12.72695581 8.73162183 12.109375 13.0546875 C10.75690611 16.25790328 9.82378782 17.64920996 6.796875 19.3671875 C3.62182807 20.17940881 1.37132147 20.53038803 -1.890625 20.0546875 C-5.73190805 16.81093737 -7.69842472 14.75245665 -8.265625 9.7421875 C-7.79849125 5.14870563 -6.37022282 3.94020765 -2.890625 1.0546875 C-1.890625 0.0546875 -1.890625 0.0546875 0 0 Z " fill="#060302" transform="translate(229.890625,141.9453125)"/>
</svg>
